<?xml version="1.0" encoding="utf-8"?>
<!-- Generator: Adobe Illustrator 22.1.0, SVG Export Plug-In . SVG Version: 6.00 Build 0)  -->
<svg version="1.1" id="Capa_1" xmlns="http://www.w3.org/2000/svg" xmlns:xlink="http://www.w3.org/1999/xlink" x="0px" y="0px"
	 viewBox="0 0 52 52" style="enable-background:new 0 0 52 52;" xml:space="preserve">
<style type="text/css">
	.st0{fill-rule:evenodd;clip-rule:evenodd;fill:#3D3D3C;}
</style>
<path class="st0" d="M45.9,45.4H6.2c-1.1,0-2.1-0.9-2.1-2.1V10.4c0-1.1,0.9-2.1,2.1-2.1c1.1,0,2.1,0.9,2.1,2.1v26v4.8h37.7
	c1.1,0,2.1,0.9,2.1,2.1C48,44.4,47.1,45.4,45.9,45.4 M41.1,39.2H37c-1.1,0-2.1-0.9-2.1-2.1V22.7c0-1.1,0.9-2.1,2.1-2.1h4.1
	c1.1,0,2.1,0.9,2.1,2.1v14.4C43.2,38.3,42.3,39.2,41.1,39.2 M29.5,39.2h-4.1c-1.1,0-2.1-0.9-2.1-2.1V14.5c0-1.1,0.9-2.1,2.1-2.1h4.1
	c1.1,0,2.1,0.9,2.1,2.1v22.6C31.6,38.3,30.6,39.2,29.5,39.2 M17.8,39.2h-4.1c-1.1,0-2.1-0.9-2.1-2.1V33c0-1.1,0.9-2.1,2.1-2.1h4.1
	c1.1,0,2.1,0.9,2.1,2.1v4.1C19.9,38.3,19,39.2,17.8,39.2"/>
</svg>
