<?xml version="1.0" encoding="utf-8"?>
<!-- Generator: Adobe Illustrator 22.1.0, SVG Export Plug-In . SVG Version: 6.00 Build 0)  -->
<svg version="1.1" id="Capa_1" xmlns="http://www.w3.org/2000/svg" xmlns:xlink="http://www.w3.org/1999/xlink" x="0px" y="0px"
	 viewBox="0 0 52 52" style="enable-background:new 0 0 52 52;" xml:space="preserve">
<style type="text/css">
	.st0{fill:#3D3D3C;}
	.st1{fill:#C12A21;}
</style>
<g>
	<g>
		<g>
			<polygon class="st0" points="25.5,16.8 24.6,14.6 25.3,14 25.6,14 26.3,14.6 			"/>
			<path class="st0" d="M27,13.8l-1.5,4.8l-1.6-4.7c-4.4,0.8-4.3,5.6-4.3,5.8h11.5C31.2,19.4,31.6,14.6,27,13.8z"/>
			<ellipse class="st0" cx="25.5" cy="10.3" rx="3" ry="3.2"/>
		</g>
		<path class="st0" d="M39.7,21.6c0,1.1-0.9,2-2,2c-1.1,0-2-0.9-2-2c0-1.1,0.9-2,2-2C38.9,19.6,39.7,20.5,39.7,21.6z"/>
		<path class="st0" d="M27.3,43.1c0,1.2-1,2.2-2.1,2.2c-1.2,0-2.1-1-2.1-2.2c0-1.2,1-2.2,2.1-2.2C26.3,40.9,27.3,41.9,27.3,43.1z"/>
		<path class="st0" d="M32.1,42.5c0,0.5-0.4,0.9-0.8,0.9c-0.5,0-0.8-0.4-0.8-0.9c0-0.5,0.4-0.9,0.8-0.9C31.7,41.7,32.1,42,32.1,42.5
			z"/>
		<path class="st0" d="M40.2,27.6c0,0.5-0.4,0.9-0.8,0.9c-0.5,0-0.8-0.4-0.8-0.9c0-0.5,0.4-0.9,0.8-0.9
			C39.8,26.7,40.2,27.1,40.2,27.6z"/>
		<path class="st0" d="M12,27.6c0,0.5-0.4,0.9-0.8,0.9c-0.5,0-0.8-0.4-0.8-0.9c0-0.5,0.4-0.9,0.8-0.9C11.6,26.7,12,27.1,12,27.6z"/>
		<path class="st0" d="M34.1,17.6c0,0.5-0.4,0.9-0.8,0.9c-0.5,0-0.8-0.4-0.8-0.9c0-0.5,0.4-0.9,0.8-0.9
			C33.7,16.7,34.1,17.1,34.1,17.6z"/>
		<path class="st0" d="M18,17.6c0,0.5-0.4,0.9-0.8,0.9c-0.5,0-0.8-0.4-0.8-0.9c0-0.5,0.4-0.9,0.8-0.9C17.6,16.7,18,17.1,18,17.6z"/>
		<path class="st0" d="M20.2,42.5c0,0.5-0.4,0.9-0.8,0.9c-0.5,0-0.8-0.4-0.8-0.9c0-0.5,0.4-0.9,0.8-0.9C19.8,41.7,20.2,42,20.2,42.5
			z"/>
		<path class="st0" d="M14.9,21.6c0,1.1-0.9,2-2,2c-1.1,0-2-0.9-2-2c0-1.1,0.9-2,2-2C14,19.6,14.9,20.5,14.9,21.6z"/>
		<g>
			<g>
				<path class="st1" d="M12,42.9c-3.8,0-6.8-3.1-6.8-6.8c0-3.8,3.1-6.8,6.8-6.8c3.8,0,6.8,3.1,6.8,6.8C18.8,39.9,15.8,42.9,12,42.9
					z M12,31.2c-2.7,0-4.9,2.2-4.9,4.9c0,2.7,2.2,4.9,4.9,4.9s4.9-2.2,4.9-4.9C16.9,33.4,14.7,31.2,12,31.2z"/>
			</g>
			<g>
				<path class="st1" d="M11.4,39.8v-0.9c-0.6,0-1.2-0.2-1.6-0.4l0.3-1.1c0.4,0.2,0.9,0.4,1.5,0.4c0.5,0,0.9-0.2,0.9-0.6
					c0-0.4-0.3-0.6-1-0.8c-1-0.3-1.7-0.8-1.7-1.7c0-0.8,0.6-1.5,1.6-1.7v-0.9h0.9V33c0.6,0,1,0.2,1.4,0.3l-0.3,1
					c-0.2-0.1-0.7-0.3-1.3-0.3c-0.6,0-0.8,0.3-0.8,0.5c0,0.3,0.3,0.5,1.1,0.8c1.1,0.4,1.5,0.9,1.5,1.7c0,0.8-0.6,1.5-1.6,1.7v1H11.4
					z"/>
			</g>
		</g>
	</g>
	<path class="st1" d="M40.9,34.1L45,38v3.7h-8.3V38L40.9,34.1z M40.9,32.5l-5.3,4.9v5.4h10.6v-5.4L40.9,32.5z M42.1,41.1h-2.4v-3.5
		h2.4V41.1z M48,35.9l-0.8,0.9l-6.3-5.8l-6.3,5.8l-0.8-0.9l7.1-6.6L48,35.9z"/>
</g>
</svg>
