<?xml version="1.0" encoding="utf-8"?>
<!-- Generator: Adobe Illustrator 22.1.0, SVG Export Plug-In . SVG Version: 6.00 Build 0)  -->
<svg version="1.1" id="Capa_1" xmlns="http://www.w3.org/2000/svg" xmlns:xlink="http://www.w3.org/1999/xlink" x="0px" y="0px"
	 viewBox="0 0 52 52" style="enable-background:new 0 0 52 52;" xml:space="preserve">
<style type="text/css">
	.st0{fill-rule:evenodd;clip-rule:evenodd;fill:#CA222B;}
	.st1{fill:#3D3D3C;}
</style>
<path class="st0" d="M25.9,4.3c-6.8,0-12.3,5.5-12.3,12.3c0,6.8,5.5,12.3,12.3,12.3c6.8,0,12.3-5.5,12.3-12.3
	C38.2,9.8,32.7,4.3,25.9,4.3z M27.1,22.6V24c0,0.3-0.1,0.5-0.5,0.5h-1.4c-0.4,0-0.5-0.2-0.5-0.5v-1.4c-1.9-0.4-3.6-1.6-3.6-3.7
	c0-0.4,0.1-0.5,0.5-0.5h1.7c0.4,0,0.6,0.1,0.6,0.5c0,0.2,0.1,0.5,0.3,0.7c0.4,0.4,1.1,0.6,1.8,0.6c1,0,1.7-0.2,1.7-1.2
	c0-1-1.6-1-3.1-1.5C23,17,21.3,16.3,21.3,14c0-2,1.6-3.1,3.4-3.4V9.2c0-0.3,0.1-0.5,0.5-0.5h1.4c0.4,0,0.5,0.2,0.5,0.5v1.4
	c1.7,0.4,3.3,1.4,3.3,3.2c0,0.4-0.1,0.5-0.5,0.5h-1.7c-0.3,0-0.4-0.2-0.5-0.5c-0.1-0.2-0.2-0.3-0.4-0.5c-0.3-0.3-1-0.5-1.5-0.5
	c-0.6,0-1.6,0.2-1.6,1c0,1.1,2.6,1.5,3.3,1.8c1.3,0.4,3.2,0.9,3.2,3.3C30.7,21.1,29.2,22.3,27.1,22.6z"/>
<g>
	<g>
		<path class="st1" d="M42.1,21.8h-1.9l-2,1.4h3.3c0.2,0,0.3,0,0.5,0.1c0.9,0.2,1.6,1,1.6,2v18.3c0.9-0.5,1.4-1.5,1.4-2.6V24.7
			C45,23.1,43.7,21.8,42.1,21.8z M41.6,24.4H9.5c-0.3,0-0.6-0.3-0.6-0.6c0-0.3,0.3-0.6,0.6-0.6H12l0.8-0.6l1.1-0.8H9.9
			c-1.6,0-2.9,1.3-2.9,2.9v19.5c0,1.6,1.3,2.9,2.9,2.9h29.7c1.6,0,2.9-1.3,2.9-2.9V25.3C42.5,24.8,42.1,24.4,41.6,24.4z"/>
	</g>
</g>
</svg>
