<?xml version="1.0" encoding="utf-8"?>
<!-- Generator: Adobe Illustrator 22.1.0, SVG Export Plug-In . SVG Version: 6.00 Build 0)  -->
<svg version="1.1" id="Capa_1" xmlns="http://www.w3.org/2000/svg" xmlns:xlink="http://www.w3.org/1999/xlink" x="0px" y="0px"
	 viewBox="0 0 52 52" style="enable-background:new 0 0 52 52;" xml:space="preserve">
<style type="text/css">
	.st0{fill:#C12A21;}
	.st1{fill:#3D3D3C;}
</style>
<g>
	<path class="st0" d="M35.1,26.6c-6,0-10.9,4.9-10.9,10.9c0,6,4.9,10.9,10.9,10.9S46,43.5,46,37.5C46,31.4,41.1,26.6,35.1,26.6z
		 M36,42v1h-0.9V42c-0.9,0-1.9-0.2-2.7-0.7l0.4-1.5c0.9,0.3,2,0.7,2.9,0.5c1-0.2,1.3-1.3,0.1-1.8c-0.8-0.4-3.4-0.7-3.4-2.9
		c0-1.2,0.9-2.3,2.7-2.6v-1H36v0.9c0.7,0,1.4,0.1,2.2,0.4l-0.3,1.5c-0.7-0.2-1.5-0.5-2.2-0.4c-1.4,0.1-1.5,1.3-0.5,1.7
		c1.6,0.7,3.6,1.3,3.6,3.2C38.7,40.9,37.5,41.8,36,42z"/>
	<path class="st1" d="M39,23.5c2.1-0.4,3.9-1.1,5.2-2.2v1.2c0,0.9-0.7,1.7-1.8,2.4C41.3,24.3,40.2,23.8,39,23.5z M35.1,12.9
		c4.9,0,9.1-1.8,9.1-4.1s-4.2-4.1-9.1-4.1c-4.9,0-9.1,1.8-9.1,4.1S30.2,12.9,35.1,12.9z M35.3,9.3C34.7,9.1,33.1,9,33.1,8
		c0-0.5,0.6-1,1.7-1.1V6.6h0.6v0.4c0.4,0,0.9,0.1,1.4,0.2l-0.2,0.6c-0.4-0.1-0.8-0.2-1.3-0.2l-0.1,0c-0.9,0-0.9,0.5-0.3,0.7
		c1,0.3,2.3,0.5,2.3,1.3c0,0.6-0.8,1-1.8,1.1v0.4h-0.6v-0.4c-0.6,0-1.2-0.1-1.7-0.3l0.3-0.6c0.4,0.1,1,0.2,1.5,0.2l0.4,0
		C35.9,9.9,36,9.5,35.3,9.3z M15.1,32.9c2.6,0,5-0.5,6.7-1.4c0.6-1.3,1.3-2.4,2.2-3.5c-0.8-1.9-4.6-3.3-8.9-3.3
		c-4.9,0-9.1,1.8-9.1,4.1S10.2,32.9,15.1,32.9z M15.3,29.3C14.7,29.1,13,29,13,28c0-0.5,0.6-1,1.7-1.1v-0.4h0.6v0.4
		c0.4,0,0.9,0.1,1.4,0.2l-0.2,0.6c-0.4-0.1-0.8-0.2-1.3-0.2l-0.1,0c-0.9,0-0.9,0.5-0.3,0.7c1,0.3,2.3,0.5,2.3,1.3
		c0,0.6-0.8,1-1.8,1.1v0.4h-0.6v-0.4c-0.6,0-1.2-0.1-1.7-0.3l0.3-0.6c0.4,0.1,1,0.2,1.5,0.2l0.4,0C15.9,29.9,16,29.5,15.3,29.3z
		 M22.5,44.8c-1.7,1.1-4.4,1.8-7.4,1.8c-4.9,0-9.1-1.8-9.1-4.1v-1.2c2.1,1.7,5.7,2.5,9.1,2.5c2.2,0,4.5-0.4,6.5-1.1
		C21.8,43.4,22.2,44.1,22.5,44.8z M6,37.9v-1.2c2.1,1.7,5.7,2.5,9.1,2.5c1.9,0,3.8-0.3,5.5-0.8c0.1,0.9,0.2,1.7,0.4,2.5
		c-1.6,0.6-3.7,1-5.9,1C10.2,42,6,40.2,6,37.9z M6,33.4v-1.2c2.1,1.7,5.7,2.5,9.1,2.5c2,0,4.1-0.3,5.9-0.9c-0.2,0.9-0.4,1.8-0.4,2.8
		c-1.6,0.5-3.5,0.9-5.5,0.9C10.2,37.5,6,35.6,6,33.4z M26,13.4v-1.2c2.1,1.7,5.7,2.5,9.1,2.5c3.4,0,7-0.9,9.1-2.5v1.2
		c0,2.3-4.2,4.1-9.1,4.1C30.2,17.5,26,15.6,26,13.4z M26,22.5v-1.2c1.3,1,3.2,1.8,5.2,2.2c-1.2,0.3-2.3,0.8-3.4,1.4
		C26.7,24.2,26,23.4,26,22.5z M26,17.9v-1.2c2.1,1.7,5.7,2.5,9.1,2.5c3.4,0,7-0.9,9.1-2.5v1.2c0,2.3-4.2,4.1-9.1,4.1
		C30.2,22,26,20.2,26,17.9z"/>
</g>
</svg>
