<?xml version="1.0" encoding="utf-8"?>
<!-- Generator: Adobe Illustrator 22.1.0, SVG Export Plug-In . SVG Version: 6.00 Build 0)  -->
<svg version="1.1" id="Capa_1" xmlns="http://www.w3.org/2000/svg" xmlns:xlink="http://www.w3.org/1999/xlink" x="0px" y="0px"
	 viewBox="0 0 52 52" style="enable-background:new 0 0 52 52;" xml:space="preserve">
<style type="text/css">
	.st0{fill-rule:evenodd;clip-rule:evenodd;fill:#CA222B;}
	.st1{fill-rule:evenodd;clip-rule:evenodd;fill:#3D3D3C;}
</style>
<path class="st0" d="M32.5,31.1c2.6,1.1,1.8,0.3,3.8,1.3c3.3,1.6,3.3,6.1,3.3,6.1l0,0c0,0,0,0,0,0c0,0.7-0.6,1.2-1.2,1.2H14.5
	c-0.7,0-1.2-0.6-1.2-1.2c0,0,0,0,0,0h0c0,0,0-4.5,3.3-6.1c2.1-1,1.3-0.2,3.8-1.3c2.6-1.1,3.2-1.4,3.2-1.4l0-2.4c0,0-1-0.7-1.3-3
	c-0.6,0.2-0.8-0.7-0.8-1.3c0-0.5-0.3-2.2,0.4-2.1c-0.2-1.1-0.3-2.1-0.2-2.7c0.2-1.9,2-3.8,4.8-4c3.3,0.1,4.6,2.1,4.8,4
	c0.1,0.5-0.1,1.5-0.2,2.7c0.7-0.1,0.4,1.5,0.4,2.1c0,0.6-0.2,1.4-0.8,1.3c-0.3,2.3-1.3,3-1.3,3l0,2.4C29.3,29.7,29.9,30.1,32.5,31.1
	"/>
<path class="st1" d="M49.3,38.6L49.3,38.6c0,0.6-0.5,1.1-1.1,1.1h-8.4c0.6-0.1,1.1-0.7,1.1-1.4c0,0,0,0,0,0l0,0c0,0,0-5.1-3.7-6.9
	c-1.6-0.8-1.7-0.6-2.5-0.8l0-2.2c0,0-0.9-0.7-1.1-2.7c-0.5,0.2-0.7-0.6-0.8-1.1c0-0.5-0.3-2,0.3-1.9c-0.1-1-0.2-1.9-0.2-2.4
	c0.2-1.7,1.8-3.5,4.4-3.6c3,0.1,4.2,1.9,4.3,3.6c0,0.5-0.1,1.4-0.2,2.4c0.7-0.1,0.4,1.4,0.3,1.9c0,0.5-0.2,1.3-0.8,1.1
	c-0.3,2.1-1.1,2.7-1.1,2.7l0,2.2c0,0,0.6,0.3,2.9,1.3c2.3,1,1.6,0.2,3.5,1.2C49.3,34.6,49.3,38.6,49.3,38.6L49.3,38.6z M3.1,38.6
	c0,0,0-4.1,3-5.6c1.9-0.9,1.2-0.2,3.5-1.2c2.3-1,2.9-1.3,2.9-1.3l0-2.2c0,0-0.9-0.7-1.1-2.7c-0.5,0.2-0.7-0.6-0.8-1.1
	c0-0.5-0.3-2,0.3-1.9c-0.1-1-0.2-1.9-0.2-2.4c0.2-1.7,1.4-3.5,4.3-3.6c2.5,0.1,4.2,1.9,4.4,3.6c0,0.5,0,1.4-0.2,2.4
	c0.7-0.1,0.4,1.4,0.3,1.9c0,0.5-0.2,1.3-0.8,1.1c-0.3,2.1-1.1,2.7-1.1,2.7l0,2.2c-0.8,0.2-0.9,0-2.5,0.8c-3.7,1.8-3.7,6.9-3.7,6.9h0
	c0,0,0,0,0,0c0,0.7,0.5,1.2,1.1,1.4H4.2C3.6,39.8,3.1,39.3,3.1,38.6L3.1,38.6L3.1,38.6z"/>
</svg>
